<?xml version="1.0" encoding="UTF-8" standalone="no"?>
<!-- Created with Inkscape (http://www.inkscape.org/) -->

<svg
   xmlns:dc="http://purl.org/dc/elements/1.1/"
   xmlns:cc="http://creativecommons.org/ns#"
   xmlns:rdf="http://www.w3.org/1999/02/22-rdf-syntax-ns#"
   xmlns:svg="http://www.w3.org/2000/svg"
   xmlns="http://www.w3.org/2000/svg"
   xmlns:sodipodi="http://sodipodi.sourceforge.net/DTD/sodipodi-0.dtd"
   xmlns:inkscape="http://www.inkscape.org/namespaces/inkscape"
   width="32"
   height="32"
   id="svg2"
   version="1.1"
   inkscape:version="0.48.2 r9819"
   sodipodi:docname="scroll.svg"
   inkscape:export-filename="C:\Users\Win\Documents\GitHub\clipboardHistory\scroll.png"
   inkscape:export-xdpi="90"
   inkscape:export-ydpi="90">
  <defs
     id="defs4" />
  <sodipodi:namedview
     id="base"
     pagecolor="#ffffff"
     bordercolor="#666666"
     borderopacity="1.0"
     inkscape:pageopacity="0.0"
     inkscape:pageshadow="2"
     inkscape:zoom="11.2"
     inkscape:cx="11.763249"
     inkscape:cy="19.885256"
     inkscape:document-units="px"
     inkscape:current-layer="layer1"
     showgrid="false"
     inkscape:window-width="759"
     inkscape:window-height="710"
     inkscape:window-x="60"
     inkscape:window-y="98"
     inkscape:window-maximized="0" />
  <metadata
     id="metadata7">
    <rdf:RDF>
      <cc:Work
         rdf:about="">
        <dc:format>image/svg+xml</dc:format>
        <dc:type
           rdf:resource="http://purl.org/dc/dcmitype/StillImage" />
        <dc:title></dc:title>
      </cc:Work>
    </rdf:RDF>
  </metadata>
  <g
     inkscape:label="Layer 1"
     inkscape:groupmode="layer"
     id="layer1"
     transform="translate(0,-1020.3622)">
    <rect
       style="fill:#e6e6e6;fill-opacity:1;stroke:none"
       id="rect2985"
       width="31.875002"
       height="31.874998"
       x="0.089285634"
       y="1020.4872" />
    <path
       style="fill:#5e5dff;fill-opacity:1;stroke:none"
       id="path2987"
       d="m 3.0153011,1024.782 c 0.2379276,0.2753 0.5204146,0.4858 0.777373,0.7342 0.2511335,0.2347 0.3949997,0.3623 0.7214823,0.3778 0.3190439,0.024 0.6157803,-0.053 0.9101679,-0.1924 0.6363506,-0.4519 -0.3210682,0.231 -0.9649907,0.6293 -0.066878,0.042 0.121856,-0.1051 0.1809726,-0.1604 0.1533677,-0.1435 0.2866355,-0.2967 0.414236,-0.4705 0.1609413,-0.2443 0.2418006,-0.5186 0.2064999,-0.8251 -0.1024167,-0.2945 -0.3121774,-0.5184 -0.5514282,-0.6579 -0.2689032,-0.1429 -0.5125159,-0.022 -0.7680279,0.093 -0.505104,0.2601 -1.2931975,0.8111 0.9398234,-0.6573 0.039841,-0.027 -0.076795,0.058 -0.1147908,0.088 -0.1322213,0.1035 -0.089451,0.068 -0.2093547,0.1856 -0.2150588,0.2398 -0.292924,0.5556 -0.3405529,0.8877 -0.036271,0.3715 -0.033743,0.7463 -0.032178,1.1196 -0.0088,0.4076 -0.013876,0.6721 0.1377413,1.0472 0.2064527,0.4143 0.5142669,0.7342 0.8632174,0.9763 0.099724,0.054 0.1711299,0.1067 0.2814595,0.1158 0.032621,0 0.1256891,-0.035 0.097243,-0.015 -1.4580476,0.9702 -1.6704098,1.2308 -1.2431256,0.74 0,0 1.4490005,-0.7714 1.4490005,-0.7714 l 0,0 c -0.1760715,0.967 -1.2673966,1.4476 -1.8998762,0.9231 -0.3553419,-0.2865 -0.6795077,-0.6248 -0.9106941,-1.0571 -0.1705454,-0.3749 -0.2068323,-0.6964 -0.1817093,-1.1174 9.802e-4,-0.3809 -0.0011,-0.7624 0.024499,-1.1423 0.02921,-0.3542 0.089578,-0.7098 0.2888492,-0.9914 0.093078,-0.1345 0.1889456,-0.2277 0.3171908,-0.3161 0.5941289,-0.4091 1.1412186,-0.8762 1.7807172,-1.1561 0.2891431,-0.109 0.5775322,-0.1553 0.8538398,0.031 0.2615026,0.1953 0.4900151,0.4678 0.6206685,0.8005 0.0625,0.3534 0.012262,0.6756 -0.1640053,0.9771 -0.5772096,0.8755 -1.4816109,1.3705 -2.3055233,1.8513 -0.3191071,0.1201 -0.6412015,0.1922 -0.9777716,0.1457 -0.2962677,-0.063 -0.5375039,-0.2412 -0.7582001,-0.4789 -0.2560087,-0.2541 -0.5267413,-0.4864 -0.8085202,-0.6997 0,0 1.3657687,-1.0137 1.3657687,-1.0137 z"
       inkscape:connector-curvature="0" />
    <path
       style="fill:#00ffff;fill-opacity:1;stroke:none"
       id="path3757"
       d="m 9.9078817,1026.7348 c 0.2867753,0.4781 0.6849493,0.8329 1.0767283,1.1843 0.758149,0.6593 1.570058,1.1006 2.477788,1.3835 0.274834,0.073 0.573137,0.1462 0.849192,0.027 0.07278,-0.032 0.270958,-0.1771 0.2023,-0.1348 -1.201176,0.7399 -1.410961,1.1121 -0.985939,0.4843 0.323739,-0.6256 0.422227,-1.3564 0.499618,-2.0705 0.06068,-0.7941 0.08798,-1.5943 0.05244,-2.3908 -0.03023,-0.4454 -0.143977,-0.859 -0.347247,-1.2333 -0.126132,-0.2108 -0.312419,-0.2314 -0.514688,-0.2489 -0.12231,-0.01 -0.168768,-0.019 -0.29462,0.028 -0.0661,0.024 -0.250541,0.1387 -0.190533,0.098 0.366151,-0.2486 0.724655,-0.5171 1.109907,-0.7221 0.10588,-0.056 -0.182205,0.1711 -0.26165,0.2706 -0.09242,0.1159 -0.167923,0.2488 -0.251884,0.3732 -0.561212,0.9606 -0.71124,2.1089 -0.809008,3.2414 -0.09128,0.9618 0.0554,1.9263 0.395232,2.8067 0.06542,0.1694 0.14477,0.3311 0.217155,0.4967 0.347383,0.6723 0.615671,1.2021 1.261792,1.4868 0.369119,0.081 0.776991,0.1776 1.151143,0.075 0.08675,-0.024 0.168816,-0.067 0.253225,-0.1 0.56191,-0.3044 0.639141,-0.3569 -0.776586,0.5504 -0.08776,0.056 0.169612,-0.1243 0.253365,-0.1885 0.220361,-0.1686 0.432756,-0.346 0.639662,-0.5364 0.261596,-0.2583 0.537307,-0.4956 0.812917,-0.7326 0.261236,-0.2529 0.5238,-0.5036 0.79665,-0.7394 0.676629,-0.4903 1.350892,-1.2346 2.182064,-1.1816 0.323108,0.1487 0.525534,0.4658 0.700436,0.8029 0.08914,0.1439 0.102199,0.3267 0.159068,0.4848 0.0047,0.013 0.03936,0.021 0.02841,0.028 -1.48084,0.8975 -1.535957,1.4172 -1.388408,0.6338 0.06145,-0.7828 0.04644,-1.5707 0.03658,-2.3558 0.0057,-0.5894 0.120517,-1.155 0.339157,-1.6832 0.479885,-0.7381 1.276989,-1.2279 2.057056,-1.3735 0.297254,-0.013 0.615646,-0.087 0.903739,0.034 0.07991,0.034 0.153159,0.086 0.229737,0.1289 0.456341,0.3247 0.773096,0.8343 1.064992,1.3458 0.253714,0.4417 0.455355,0.9421 0.793485,1.3055 0.113589,0.1029 0.214686,0.1644 0.342205,0.059 0.03189,-0.027 0.120919,-0.1142 0.08654,-0.093 -1.248785,0.7873 -1.567999,1.2699 -1.158449,0.693 0.204627,-0.449 0.26156,-0.9703 0.338273,-1.4659 0.0495,-0.2273 0.03345,-0.4882 0.127374,-0.7024 0.269956,-0.6158 1.674979,-1.0471 1.70675,-1.0565 0.14019,-0.042 0.230279,0.2052 0.345419,0.3078 0.131211,0.1834 0.271549,0.3584 0.393635,0.5503 0.471368,0.7411 0.855857,1.5603 1.265762,2.3478 0.405734,0.7796 0.376967,0.716 0.784521,1.4455 0.108964,0.1789 0.209642,0.365 0.326891,0.5364 0.08788,0.1286 0.322826,0.4516 0.498059,0.5124 0.04685,0.016 0.185839,-0.064 0.143177,-0.037 -1.393277,0.913 -1.549604,1.1868 -1.140219,0.5943 0.120503,-0.2988 0.06495,-0.1461 0.166329,-0.4583 0,0 1.413326,-0.7724 1.413326,-0.7724 l 0,0 c -0.09868,0.3229 -0.04934,0.1609 -0.148016,0.4866 -0.02809,0.074 -0.02596,0.1799 -0.08427,0.225 -0.161984,0.1253 -1.1967,1.3335 -1.656852,0.9215 -0.329483,-0.2947 -0.478633,-0.8168 -0.709772,-1.1958 -0.380791,-0.7675 -0.756788,-1.5415 -1.163976,-2.2903 -0.250106,-0.4598 -0.581027,-1.0468 -0.899189,-1.454 -0.132884,-0.1702 -0.290721,-0.3108 -0.436081,-0.4662 -0.764208,-0.405 -0.461208,-0.1021 0.761031,-1.0795 0.04509,-0.036 -0.0992,0.06 -0.135288,0.1081 -0.13445,0.1789 -0.120926,0.4675 -0.165599,0.6816 -0.08383,0.5074 -0.131621,1.0287 -0.282035,1.5163 -0.340637,0.7573 -0.05934,0.2019 -1.533939,1.2276 -0.186357,0.1296 -0.391136,-0.039 -0.526247,-0.1775 -0.319463,-0.4005 -0.515913,-0.9099 -0.791692,-1.3504 -0.272329,-0.489 -0.556782,-0.9845 -1.014278,-1.256 -0.07255,-0.03 -0.142788,-0.069 -0.217661,-0.09 -0.290449,-0.08 -0.60522,0 -0.894802,0.045 -0.116822,0.035 -0.143846,0.037 -0.254293,0.095 -0.03792,0.02 -0.146386,0.092 -0.110609,0.067 2.295377,-1.5905 1.441537,-1.0607 1.01664,-0.671 -0.271408,0.4887 -0.408832,1.0477 -0.430545,1.6304 -0.0068,0.7768 -0.01408,1.5547 0.02471,2.3306 0.07358,0.834 0.07447,0.2529 -1.434299,1.1406 -0.02076,0.012 -0.0112,-0.053 -0.01657,-0.08 -0.03087,-0.1527 -0.06242,-0.3043 -0.128703,-0.4426 -0.146894,-0.2847 -0.315739,-0.584 -0.617099,-0.6383 -0.13552,0.011 -0.260441,0.035 -0.38842,0.091 -0.04107,0.018 -0.158683,0.087 -0.121069,0.06 0.848589,-0.5984 1.685616,-1.1359 1.077028,-0.7437 -0.276417,0.2171 -0.535597,0.463 -0.782738,0.7242 -0.275549,0.2603 -0.583791,0.4727 -0.851139,0.7466 -0.754872,0.7238 -1.636206,1.2751 -2.484517,1.8171 -0.09097,0.059 -0.192373,0.091 -0.288559,0.1353 -0.09237,0.026 -0.183182,0.062 -0.277096,0.08 -0.40016,0.073 -0.821901,-0.013 -1.205899,-0.1411 -0.07011,-0.04 -0.143815,-0.071 -0.210315,-0.1186 -0.486454,-0.3458 -0.747839,-0.9798 -1.02075,-1.5355 -0.07264,-0.1717 -0.152679,-0.3393 -0.217934,-0.5151 -0.335156,-0.9027 -0.53077,-1.8896 -0.433368,-2.8747 0.106916,-1.1388 0.234667,-2.3077 0.747655,-3.3077 0.07358,-0.1295 0.140203,-0.2649 0.220755,-0.3885 0.452371,-0.6945 1.03779,-0.8792 1.775963,-1.351 0.16666,-0.1065 0.377218,-0.099 0.559119,-0.086 0.248045,0.042 0.454473,0.1323 0.589772,0.3974 0.199695,0.4174 0.306921,0.8703 0.32614,1.351 0.01768,0.8073 -0.0079,1.6167 -0.05388,2.4222 -0.06401,0.7298 -0.158549,1.4706 -0.438404,2.1352 -0.441137,0.8397 -0.121285,0.3183 -1.646364,1.3696 -0.323892,0.2234 -0.743896,0.069 -1.072971,-0.032 -0.289547,-0.1125 -0.459495,-0.1709 -0.746066,-0.316 -0.60848,-0.3078 -1.179711,-0.7167 -1.7375364,-1.1325 -0.4358324,-0.3456 -0.8707421,-0.6981 -1.2346183,-1.1479 0,0 1.4017912,-0.9638 1.4017912,-0.9638 z"
       inkscape:connector-curvature="0" />
    <path
       style="fill:#00ffff;fill-opacity:1;stroke:none"
       id="path3759"
       d="m 4.7631651,1035.5882 c 0.3246897,0.3485 0.615941,0.7358 0.9172441,1.1116 0.3300803,0.4412 0.6163765,0.7911 1.0953737,0.9853 0.2131958,0.05 0.4188248,0.1095 0.6404929,0.094 0.7104345,-0.047 1.354453,-0.4216 1.971114,-0.8019 0.083219,-0.051 -0.1723681,0.089 -0.2585526,0.1323 1.4468628,-1.0679 2.7408098,-2.381 3.9637558,-3.7745 0.643642,-0.7782 1.125579,-1.129 2.124196,-1.5401 0.07899,-0.033 0.137562,0.4328 0.137696,0.4336 0.02386,0.6989 0.002,1.3995 -0.0019,2.099 0.0089,0.4595 -0.05948,0.9662 0.155262,1.3761 0.277991,0.2503 0.664691,0.1737 0.977422,0.075 0.08237,-0.035 0.166466,-0.063 0.247093,-0.1031 0.08406,-0.042 0.165506,-0.09 0.246267,-0.1394 0.08635,-0.054 0.34014,-0.2236 0.254826,-0.1683 -1.611986,1.0448 -1.20134,0.8622 -0.673463,0.2836 0.770828,-0.8991 0.630716,-0.9448 2.047724,-1.6926 0.06151,-0.033 0.117473,0.079 0.176208,0.1166 0.512146,0.6244 0.926665,1.3464 1.385967,2.0226 0.209707,0.2786 0.403181,0.622 0.696737,0.7923 0.127047,0.074 0.215792,0.084 0.354664,0.1168 0.204467,0.01 0.238943,0.031 0.444876,-0.052 0.08705,-0.035 0.330317,-0.1881 0.251301,-0.133 -0.343406,0.2392 -0.68717,0.4798 -1.04561,0.6866 -0.10111,0.059 0.184397,-0.1527 0.269684,-0.2391 0.08163,-0.084 0.153302,-0.178 0.229952,-0.267 0.353545,-0.4745 0.530648,-1.0466 0.530046,-1.6713 -0.05935,-0.5089 -0.203001,-0.5738 -0.604206,-0.6551 -0.299324,-0.046 -0.616928,0.044 -0.887694,0.1979 -0.08252,0.048 -0.319404,0.2124 -0.238769,0.161 0.357983,-0.2285 0.713909,-0.4614 1.070864,-0.6921 -0.682337,0.6666 -0.969902,1.6796 -1.193789,2.6529 -0.08424,0.5076 -0.232181,1.0829 -0.05864,1.5914 0.08744,0.2562 0.173867,0.3109 0.340791,0.4966 0.781064,0.5962 1.421425,0.4398 2.280842,0.2068 0.89195,-0.2521 1.730836,-0.69 2.571243,-1.1103 0.403913,-0.205 0.772943,-0.5084 1.220959,-0.5496 0.323557,0.01 0.641501,0.09 0.963825,0.1276 0.249562,0.013 0.501543,0.068 0.750435,0.01 0.385401,-0.093 1.856145,-1.1222 -0.621207,0.4674 0.235378,-0.248 0.44089,-0.5531 0.524046,-0.9177 0.0073,-0.032 -0.01426,-0.089 0.0125,-0.098 0.02398,-0.01 0.01084,0.058 0.01625,0.088 1.943118,-1.1578 1.344818,-1.262 1.260689,-0.1103 -0.0088,0.7715 1.315562,-0.4066 -1.457413,0.9252 -0.02331,0.011 -0.0012,-0.059 -0.0012,-0.089 -5.8e-5,-0.075 0.0015,-0.151 0.0022,-0.2264 0.0062,-0.1411 0.0037,-0.277 -0.01352,-0.4166 0,0 1.403151,-0.8799 1.403151,-0.8799 l 0,0 c 0.03038,0.1485 0.04806,0.2873 0.0391,0.4406 0.0018,0.075 0.01475,0.2762 0.01178,0.2781 -0.480075,0.3095 -0.979788,0.5752 -1.464062,0.8755 -0.0099,0.01 0.02479,0.023 0.03172,0.013 0.01679,-0.025 0.01442,-0.061 0.02162,-0.093 0.160498,-1.2836 -0.108578,-0.6934 1.557985,-1.7301 0.01255,0.037 0.03711,0.07 0.03768,0.1098 6.75e-4,0.046 -0.02164,0.089 -0.03417,0.1311 -0.111076,0.3828 -0.27969,0.7378 -0.518176,1.0326 -0.44214,0.3131 -1.327813,1.1652 -2.049733,1.272 -0.25774,0.039 -0.518183,-0.01 -0.775526,-0.021 -0.325644,-0.032 -0.65243,-0.1031 -0.979463,-0.066 -0.403324,0.084 -0.748683,0.354 -1.125972,0.5272 -0.827093,0.3994 -1.659968,0.7929 -2.532582,1.0361 -0.923712,0.2348 -1.611938,0.3741 -2.432158,-0.2935 -0.193046,-0.2228 -0.286152,-0.2814 -0.385268,-0.5854 -0.178702,-0.548 -0.02755,-1.1607 0.07973,-1.7019 0.201287,-0.8261 0.414989,-1.7659 0.871798,-2.4577 0.06586,-0.099 0.148498,-0.1823 0.222747,-0.2736 0.515906,-0.3654 1.027889,-0.7385 1.54772,-1.096 0.364193,-0.2506 0.802009,-0.361 1.218518,-0.2835 0.45129,0.1235 0.651276,0.3128 0.699003,0.8777 0.01505,0.6818 -0.154544,1.2768 -0.514539,1.8177 -0.642749,0.8233 -0.99807,0.9415 -2.058438,1.6135 -0.236933,0.1503 -0.517737,0.165 -0.776339,0.1172 -0.170818,-0.054 -0.244233,-0.061 -0.394223,-0.1706 -0.286025,-0.2098 -0.455347,-0.5838 -0.661467,-0.882 -0.413955,-0.6731 -0.820638,-1.3983 -1.406864,-1.8814 -0.591615,-0.019 -0.253448,0.017 1.113943,-0.8832 0.05121,-0.034 -0.08296,0.097 -0.122693,0.1483 -0.156068,0.1992 -0.309119,0.4011 -0.48028,0.5837 -0.02104,0.024 -0.379459,0.4283 -0.398747,0.4427 -0.722578,0.5417 -1.487435,1.1725 -2.329503,1.469 -0.384083,0.084 -0.840796,0.1338 -1.127339,-0.2427 -0.202834,-0.4674 -0.151363,-0.9865 -0.137483,-1.4957 0.01328,-0.6784 0.03821,-1.3612 -0.0257,-2.0369 -0.147088,-0.7939 -0.405495,0.039 1.225297,-1.1162 0.0593,-0.042 -0.126904,0.067 -0.183973,0.1133 -0.15834,0.1278 -0.484122,0.4797 -0.604257,0.605 -1.292776,1.393 -2.624002,2.7456 -4.098506,3.8713 -1.1654952,0.8169 -2.6383353,2.0953 -4.091509,2.2182 -0.3261912,0.028 -0.440154,-0.018 -0.7301931,-0.087 -0.070653,-0.034 -0.143852,-0.061 -0.2119617,-0.1 -0.3683528,-0.2171 -0.6151767,-0.6308 -0.8874597,-0.9765 -0.3149268,-0.3739 -0.6309245,-0.7489 -1.0023744,-1.0469 0,0 1.3825463,-0.9941 1.3825463,-0.9941 z"
       inkscape:connector-curvature="0" />
    <path
       style="fill:#00ffff;fill-opacity:1;stroke:none"
       id="path3761"
       d="m 6.3985534,1045.8222 c 0.016758,0.2567 0.1052451,0.5834 0.3110367,0.7206 0.041165,0.028 0.090675,0.032 0.1360126,0.049 0.067355,-0.017 0.1372088,-0.025 0.2020639,-0.053 0.099129,-0.043 0.3768957,-0.2208 0.2871905,-0.1558 -0.2867133,0.208 -0.5725661,0.4222 -0.8795651,0.5855 -0.1783345,0.096 0.3297588,-0.248 0.4908356,-0.3786 0.4891753,-0.3968 0.5681227,-0.4851 1.0317295,-0.9173 0.555203,-0.5696 1.0503795,-1.218 1.3585534,-2.0117 0.1374792,-0.3541 0.1639856,-0.5132 0.2506355,-0.8747 0.049111,-0.3381 0.154373,-0.8645 -0.1834486,-1.0389 -0.028425,0 -0.05759,-0.01 -0.085275,0 -0.058634,0.016 -0.2071014,0.1444 -0.1544926,0.11 0.4246515,-0.2778 0.8402519,-0.5745 1.2671989,-0.8475 0.04812,-0.031 -0.09255,0.072 -0.12883,0.1199 -0.04863,0.065 -0.08194,0.1431 -0.122912,0.2147 -0.272217,0.7759 -0.3181634,1.6373 -0.2727969,2.4665 0.062367,0.5009 0.1735299,1.0673 0.5755259,1.3442 0.06221,0.043 0.131835,0.068 0.197753,0.103 0.251343,0.086 0.51219,0.1516 0.775501,0.1058 0.49306,-0.085 1.607715,-0.9131 -0.494699,0.445 0.635235,-0.5919 0.872266,-1.4853 1.035746,-2.3799 0.03205,-0.3782 0.201975,-1.268 0.0084,-1.6149 -0.0168,-0.031 -0.04924,-0.044 -0.07386,-0.064 -0.397974,0.5023 0.01187,-0.03 1.263991,-0.7614 0.03485,-0.02 -0.05717,0.064 -0.07631,0.1039 -0.02396,0.05 -0.04218,0.1046 -0.05098,0.1608 -0.02522,0.1612 0.0035,0.2535 0.02949,0.412 0.115217,0.4023 0.375005,0.652 0.700338,0.8061 0.276149,0.074 0.508213,0.2744 0.752363,0.4327 0.254751,0.1339 0.529375,0.205 0.804624,0.2518 0.264624,0.039 0.531552,0.043 0.797838,0.044 0.281891,-0.024 0.451097,0.1042 0.665302,0.2942 0.146197,0.1691 0.328836,0.3029 0.518425,0.3959 0.348677,0.2097 0.435917,0.6642 0.572624,1.06 0.14413,0.3514 0.256486,0.7502 0.546732,0.9687 0.371514,0.1509 0.78432,0.1481 1.16861,0.085 0.11145,-0.031 0.224595,-0.055 0.334349,-0.094 0.226492,-0.08 0.551634,-0.2331 0.761666,-0.3524 0.132078,-0.076 0.515159,-0.3303 0.388139,-0.244 -1.154926,0.7845 -1.163723,0.8093 -0.649192,0.378 0.755613,-0.8122 0.352722,-0.8204 1.908858,-1.4953 0.0754,-0.033 0.08998,0.1575 0.122703,0.2435 0.03697,0.098 0.05677,0.2025 0.08516,0.3037 0.181905,0.6811 0.344573,1.3953 0.720686,1.9687 0.335284,0.405 0.70671,0.3203 1.12946,0.1805 0.07715,-0.038 0.156193,-0.07 0.23144,-0.1122 0.08005,-0.046 0.156141,-0.099 0.233776,-0.15 0.998042,-0.6505 -1.610471,1.1203 -0.698093,0.4603 0,0 1.44882,-0.6587 1.44882,-0.6587 l 0,0 c -0.780814,0.5716 -1.576889,1.1939 -2.448487,1.5643 -0.483497,0.113 -0.90248,0.1356 -1.235974,-0.3579 -0.341921,-0.6164 -0.482553,-1.3422 -0.731069,-2.0117 -0.03342,-0.083 -0.06097,-0.1682 -0.10026,-0.2469 -0.01245,-0.025 -0.03546,-0.041 -0.05319,-0.061 0.430714,-0.3046 0.861427,-0.6091 1.292141,-0.9135 0.05096,-0.034 -0.08493,0.094 -0.123217,0.146 -0.359866,0.4862 0.06347,-0.019 -0.379949,0.4877 -0.759184,0.6578 -0.341445,0.3147 -1.900751,1.3539 -0.484225,0.3228 -1.015271,0.5558 -1.561608,0.6798 -0.425932,0.051 -0.897819,0.088 -1.28829,-0.1557 -0.29514,-0.2858 -0.404154,-0.6774 -0.560319,-1.0764 -0.126354,-0.3588 -0.217566,-0.7605 -0.553649,-0.9131 -0.190202,-0.1174 -0.375196,-0.2558 -0.530591,-0.4309 -0.204806,-0.1765 -0.353888,-0.2078 -0.607835,-0.1981 -0.267193,-0.01 -0.534674,-0.024 -0.798661,-0.078 -0.289623,-0.061 -0.585937,-0.1328 -0.846542,-0.2993 -0.236632,-0.1654 -0.470871,-0.332 -0.737021,-0.4255 -0.348371,-0.2141 -0.622777,-0.5185 -0.759259,-0.962 -0.03742,-0.1751 -0.07255,-0.2948 -0.07404,-0.4769 -0.0066,-0.8099 1.053554,-1.7366 1.652413,-1.2806 0.02965,0.048 0.06747,0.09 0.08892,0.1435 0.191578,0.4782 -0.02873,1.2535 -0.05674,1.7508 -0.148117,0.9096 -0.365396,1.8253 -0.951676,2.4886 -1.156255,0.7952 -1.734897,1.5892 -2.9932501,1.1 -0.072715,-0.046 -0.1504102,-0.083 -0.2181461,-0.1375 -0.4130602,-0.3376 -0.5297992,-0.955 -0.5977352,-1.502 -0.021125,-0.8455 0.0055,-1.7063 0.1933896,-2.527 0.3008211,-0.895 0.5962975,-0.7193 1.6607278,-1.4064 0.103869,-0.067 0.231802,-0.011 0.328509,0.038 0.375333,0.3342 0.279167,0.8223 0.191109,1.3053 -0.133163,0.5025 -0.274303,0.9949 -0.507002,1.4498 -0.307962,0.6019 -0.7287848,1.1028 -1.1624122,1.5797 -0.484414,0.4603 -0.5016073,0.4883 -1.000656,0.9166 -0.1476943,0.1267 -0.2910688,0.2617 -0.4478506,0.3725 -0.551462,0.3893 -1.1077312,0.7702 -1.6751883,1.1264 -0.1079184,0.068 -0.2262552,0.1157 -0.3464201,0.143 -0.088492,0.02 -0.1802677,0 -0.2704011,0 -0.05439,-0.035 -0.1134555,-0.061 -0.1631772,-0.1036 -0.2281892,-0.198 -0.3182447,-0.5316 -0.4148082,-0.8283 0,0 1.445855,-0.8644 1.445855,-0.8644 z"
       inkscape:connector-curvature="0" />
  </g>
</svg>
